<?xml version="1.0" standalone="no"?><!-- Generator: Gravit.io --><svg xmlns="http://www.w3.org/2000/svg" xmlns:xlink="http://www.w3.org/1999/xlink" style="isolation:isolate" viewBox="0 0 210 100" width="210" height="100"><defs><clipPath id="_clipPath_OIsVU5agztFRGLnGLxowv4BETGhCzo23"><rect width="210" height="100"/></clipPath></defs><g clip-path="url(#_clipPath_OIsVU5agztFRGLnGLxowv4BETGhCzo23)"><path d=" M 51.032 15.512 L 56.015 15.551 C 56.015 15.551 70.399 3.683 82.239 2.139 C 87.136 28.627 81.41 39.366 81.41 39.366 C 81.41 39.366 83.271 39.173 87.926 41.597 C 91.207 43.306 93.977 46.669 93.977 46.669 L 88.64 49.431 C 92.149 51.082 95.82 52.953 98.353 58.792 C 98.353 58.792 93.386 57.299 89.895 59.103 C 89.895 59.103 94.588 65.084 94.085 75.896 C 94.085 75.896 87.07 68.985 80.147 71.582 C 73.29 74.155 71.099 78.116 69.129 81.309 C 66.679 85.282 60.364 98.056 60.364 98.056 L 50.399 97.98 L 50.346 97.979 L 40.381 97.903 C 40.381 97.903 34.263 85.033 31.874 81.023 C 29.954 77.8 27.824 73.806 21.007 71.128 C 14.125 68.425 7.005 75.227 7.005 75.227 C 6.668 64.41 11.452 58.501 11.452 58.501 C 7.989 56.644 3 58.06 3 58.06 C 5.622 52.261 9.321 50.447 12.855 48.849 L 7.561 46.006 C 7.561 46.006 10.382 42.686 13.689 41.028 C 18.381 38.676 20.239 38.897 20.239 38.897 C 20.239 38.897 14.678 28.071 19.981 1.661 C 31.796 3.386 45.997 15.474 45.997 15.474 L 50.979 15.512 L 51.032 15.512 L 51.032 15.512 Z  M 56.798 66.086 C 56.798 69.467 54.057 73.474 50.676 73.474 C 47.296 73.474 44.555 69.467 44.555 66.086 C 44.555 62.706 47.296 61.232 50.676 61.232 C 54.057 61.232 56.798 62.706 56.798 66.086 Z  M 40.929 42.134 C 40.914 44.116 39.3 45.711 37.325 45.695 C 35.349 45.68 33.76 44.061 33.776 42.079 C 33.791 40.097 35.404 38.503 37.38 38.518 C 39.355 38.533 40.944 40.152 40.929 42.134 Z  M 68.087 42.343 C 68.072 44.325 66.458 45.919 64.483 45.904 C 62.508 45.889 60.919 44.27 60.934 42.288 C 60.949 40.306 62.563 38.711 64.538 38.726 C 66.514 38.742 68.103 40.36 68.087 42.343 Z " fill-rule="evenodd" fill="rgb(68,68,68)"/><path d=" M 170.368 42.908 C 168.394 42.908 166.787 41.281 166.787 39.281 C 166.787 37.281 168.394 35.653 170.368 35.653 C 172.343 35.653 173.95 37.281 173.95 39.281 C 173.95 41.281 172.343 42.908 170.368 42.908 Z " fill="rgb(68,68,68)" vector-effect="non-scaling-stroke" stroke-width="2" stroke="rgb(68,68,68)" stroke-opacity="100" stroke-linejoin="miter" stroke-linecap="butt" stroke-miterlimit="4"/><path d=" M 154.103 97 C 118.955 97 111.587 69.245 111.587 69.245 L 108.684 70.751 C 105.356 67.688 107.413 60.355 107.413 60.355 L 104.146 60.355 C 103.238 55.785 106.687 49.356 106.687 49.356 L 103.238 49.356 C 102.452 42.626 108.32 35.107 108.32 35.107 C 108.32 35.107 101.786 11.638 107.957 3 C 122.659 6.063 132.28 11.588 132.28 11.588 C 132.276 11.588 147.881 9.462 153.472 9.511 C 158.441 9.555 173.772 11.801 173.772 11.801 C 173.772 11.801 183.392 6.276 198.094 3.213 C 204.266 11.851 197.731 35.32 197.731 35.32 C 197.731 35.32 203.6 42.839 202.813 49.569 L 199.365 49.569 C 199.365 49.569 202.813 55.998 201.906 60.568 L 198.639 60.568 C 198.639 60.568 200.696 67.901 197.368 70.964 L 194.464 69.458 C 194.464 69.458 187.609 97 154.103 97 Z " fill="none" vector-effect="non-scaling-stroke" stroke-width="2" stroke="rgb(68,68,68)" stroke-opacity="10000" stroke-linejoin="miter" stroke-linecap="butt" stroke-miterlimit="10"/><path d=" M 154.026 49.86 C 143.317 49.704 136.129 60.453 136.264 72.263 C 136.399 84.034 147.789 86.842 153.735 86.818 C 159.2 86.797 171.44 84.247 171.574 72.476 C 171.709 60.666 163.603 50 154.026 49.86 Z " fill="none" vector-effect="non-scaling-stroke" stroke-width="2" stroke="rgb(68,68,68)" stroke-opacity="10000" stroke-linejoin="miter" stroke-linecap="butt" stroke-miterlimit="10"/><path d=" M 137.469 42.695 C 135.495 42.695 133.888 41.068 133.888 39.068 C 133.888 37.068 135.495 35.44 137.469 35.44 C 139.444 35.44 141.051 37.068 141.051 39.068 C 141.051 41.068 139.444 42.695 137.469 42.695 Z " fill="rgb(68,68,68)" vector-effect="non-scaling-stroke" stroke-width="2" stroke="rgb(68,68,68)" stroke-opacity="100" stroke-linejoin="miter" stroke-linecap="butt" stroke-miterlimit="4"/><path d=" M 160.365 65.005 C 160.365 68.581 157.465 72.821 153.889 72.821 C 150.312 72.821 147.413 68.581 147.413 65.005 C 147.413 61.428 150.312 59.869 153.889 59.869 C 157.465 59.869 160.365 61.428 160.365 65.005 Z " fill="rgb(68,68,68)" vector-effect="non-scaling-stroke" stroke-width="2" stroke="rgb(68,68,68)" stroke-opacity="100" stroke-linejoin="miter" stroke-linecap="butt" stroke-miterlimit="4"/><path d=" M 160.365 65.005 C 160.365 68.581 157.465 72.821 153.889 72.821 C 150.312 72.821 147.413 68.581 147.413 65.005 C 147.413 61.428 150.312 59.869 153.889 59.869 C 157.465 59.869 160.365 61.428 160.365 65.005 Z " fill="none" vector-effect="non-scaling-stroke" stroke-width="2" stroke="rgb(68,68,68)" stroke-opacity="10000" stroke-linejoin="miter" stroke-linecap="butt" stroke-miterlimit="10"/></g></svg>