<svg xmlns="http://www.w3.org/2000/svg" xmlns:xlink="http://www.w3.org/1999/xlink" xmlns:fi="http://pattern.flaticon.com/" x="0" y="0" width="700" height="350" viewBox="0 0 700 350"><rect x="0px" y="0px" width="100%" height="100%" opacity="0" fill="#a5ff58"/><defs><g transform="matrix(0.2488125655317717 -0.10136808111052915 0.10136808111052915 0.2488125655317717 28.35380618285967 146.2542803474093)" id="L1_0"><path d="M486.4,59.733H25.6c-14.138,0-25.6,11.461-25.6,25.6v341.333c0,14.138,11.461,25.6,25.6,25.6h460.8     c14.138,0,25.6-11.461,25.6-25.6V85.333C512,71.195,500.539,59.733,486.4,59.733z M494.933,426.667     c0,4.713-3.82,8.533-8.533,8.533H25.6c-4.713,0-8.533-3.82-8.533-8.533V85.333c0-4.713,3.82-8.533,8.533-8.533h460.8     c4.713,0,8.533,3.82,8.533,8.533V426.667z"/><path d="M470.076,93.898c-2.255-0.197-4.496,0.51-6.229,1.966L266.982,261.239c-6.349,5.337-15.616,5.337-21.965,0L48.154,95.863     c-2.335-1.96-5.539-2.526-8.404-1.484c-2.865,1.042-4.957,3.534-5.487,6.537s0.582,6.06,2.917,8.02l196.864,165.367     c12.688,10.683,31.224,10.683,43.913,0L474.82,108.937c1.734-1.455,2.818-3.539,3.015-5.794c0.197-2.255-0.51-4.496-1.966-6.229     C474.415,95.179,472.331,94.095,470.076,93.898z"/><path d="M164.124,273.13c-3.021-0.674-6.169,0.34-8.229,2.65l-119.467,128c-2.162,2.214-2.956,5.426-2.074,8.392     c0.882,2.967,3.301,5.223,6.321,5.897c3.021,0.674,6.169-0.34,8.229-2.65l119.467-128c2.162-2.214,2.956-5.426,2.074-8.392     C169.563,276.061,167.145,273.804,164.124,273.13z"/><path d="M356.105,275.78c-2.059-2.31-5.208-3.324-8.229-2.65c-3.021,0.674-5.439,2.931-6.321,5.897     c-0.882,2.967-0.088,6.178,2.074,8.392l119.467,128c3.24,3.318,8.536,3.442,11.927,0.278c3.391-3.164,3.635-8.456,0.549-11.918     L356.105,275.78z"/></g><g transform="matrix(0.13109547099702584 -0.04057717065029639 0.04057717065029639 0.13109547099702584 31.051803738285507 46.82731511123726)" id="L1_2"><path d="M411.836,243.442L320.238,70.048c-2.167-4.102-6.396-6.658-11.035-6.672c-0.013,0-0.025,0-0.037,0    c-4.625,0-8.852,2.529-11.037,6.608l-83.93,156.66c-1.386,2.586-1.134,5.744,0.646,8.077l20.544,26.942    c2.273,2.981,5.724,4.774,9.47,4.92c3.734,0.155,7.326-1.373,9.823-4.168l32.481-36.348l63.137,74.536    c2.357,2.783,5.801,4.397,9.447,4.428c0.036,0,0.072,0,0.108,0c3.607,0,7.033-1.551,9.413-4.266l37.42-42.667    c0.215-0.246,0.414-0.505,0.596-0.777l4.157-6.22C412.969,248.814,413.121,245.874,411.836,243.442z M395.104,248.592    l-35.217,40.157l-63.12-74.517c-2.342-2.764-5.764-4.378-9.388-4.426c-0.055-0.001-0.11-0.001-0.166-0.001    c-3.563,0-6.958,1.516-9.336,4.178l-32.381,36.235l-15.82-20.747l79.476-148.345l87.357,165.365L395.104,248.592z"/><path d="M510.535,430.257L451.738,318.96c-1.932-3.657-6.461-5.055-10.119-3.123c-3.657,1.932-5.055,6.462-3.123,10.119    l56.894,107.695H295.928c-0.236-1.162-86.906-165.627-86.906-165.627l12.882-24.045l13.485,17.685    c2.273,2.981,5.725,4.774,9.47,4.92c3.734,0.155,7.326-1.373,9.823-4.168l32.481-36.348l63.137,74.536    c2.357,2.783,5.801,4.397,9.447,4.428c0.036,0,0.072,0,0.108,0c3.607,0,7.033-1.551,9.414-4.266    c0.025-0.028,0.05-0.057,0.074-0.086l34.418-40.47l13.991,26.484c1.932,3.657,6.462,5.056,10.119,3.123    c3.657-1.932,5.055-6.462,3.123-10.119L320.237,70.044c-2.168-4.102-6.396-6.658-11.035-6.672h-0.037    c-4.625,0-8.852,2.529-11.037,6.609l-78.631,146.776l-5.297,9.887c0,0.001-0.001,0.002-0.001,0.003l-13.612,25.408l-40.471-76.607    c-1.626-3.077-4.411-5.284-7.66-6.201c-1.084-0.306-2.219-0.469-3.38-0.472c-0.012,0-0.024,0-0.036,0    c-0.155,0-0.308,0.01-0.462,0.016c-0.127,0.004-0.255,0.005-0.381,0.013c-0.115,0.008-0.228,0.023-0.342,0.034    c-0.17,0.016-0.34,0.029-0.508,0.052c-0.151,0.02-0.3,0.05-0.449,0.076c-0.125,0.022-0.252,0.039-0.376,0.065    c-3.602,0.736-6.738,3.03-8.519,6.354l-27.41,51.166l-46.102,86.056c-0.008,0.015-0.014,0.031-0.022,0.046L1.499,430.194    c-2.098,3.917-1.988,8.532,0.294,12.345c2.283,3.813,6.299,6.089,10.743,6.089h486.927c4.429,0,8.438-2.265,10.724-6.058    C512.475,438.777,512.604,434.174,510.535,430.257z M231.944,225.238l77.208-144.111l87.073,164.827l-36.367,42.76l-63.091-74.482    c-2.343-2.765-5.765-4.379-9.388-4.426c-0.056-0.001-0.111-0.001-0.166-0.001c-3.563,0-6.958,1.517-9.336,4.178l-32.381,36.235    l-15.82-20.747L231.944,225.238z M16.639,433.649l56.706-105.85l21.862,18.312c2.358,1.975,5.21,2.944,8.046,2.944    c3.439,0,6.854-1.425,9.337-4.207l25.075-28.104l16.15,16.024c2.936,2.913,7.678,2.894,10.591-0.041    c2.913-2.936,2.894-7.678-0.041-10.591l-17.989-17.848c-2.428-2.408-5.77-3.724-9.2-3.627c-3.419,0.104-6.686,1.627-8.962,4.18    L103,333.1l-22.43-18.787l68.457-127.785l88.338,167.22l-21.326,19.655l-19.509-19.357c-2.935-2.913-7.677-2.894-10.591,0.042    c-2.913,2.935-2.894,7.677,0.042,10.59l21.176,21.011c2.443,2.423,5.628,3.641,8.819,3.641c3.037,0,6.079-1.104,8.486-3.323    l20.144-18.566l34.977,66.208H16.639z"/></g><g transform="matrix(0.10866249352693558 0 0 0.10866249352693558 114.18240066275507 283.1824223906974)" id="L1_4"><path d="M502.01,381.872H395.696c1.109-3.127,1.718-6.487,1.718-9.99v-9.99h49.336c35.695,0,64.735-29.039,64.735-64.735    c0-17.291-6.733-33.548-18.96-45.775l-6.442-6.442l-55.943-55.943c-0.001-0.001-0.002-0.002-0.004-0.003l-28.501-28.501    c-32.465-32.465-75.629-50.345-121.543-50.345H9.994c-5.517,0-9.99,4.473-9.99,9.99c0,5.516,4.472,9.99,9.99,9.99h270.098    c40.576,0,78.723,15.801,107.414,44.493l11.45,11.45H283.843c-20.932,0-37.961,17.03-37.961,37.961s17.03,37.961,37.961,37.961    H474.88l3.517,3.517c8.452,8.453,13.109,19.692,13.109,31.647c0,24.678-20.078,44.756-44.756,44.756h-59.326h-39.959H104.414    H64.455H9.994c-5.517,0-9.99,4.473-9.99,9.99c0,5.516,4.472,9.99,9.99,9.99h44.471v9.99c0,3.502,0.609,6.863,1.718,9.99H10.509    c-5.517,0-9.99,4.473-9.99,9.99c0,5.516,4.472,9.99,9.99,9.99h167.83c5.517,0,9.99-4.473,9.99-9.99c0-5.516-4.472-9.99-9.99-9.99    h-65.653c1.109-3.127,1.718-6.487,1.718-9.99v-9.99h223.071v9.99c0,3.502,0.609,6.863,1.718,9.99h-82.889    c-5.517,0-9.99,4.473-9.99,9.99c0,5.516,4.472,9.99,9.99,9.99H502.01c5.517,0,9.99-4.473,9.99-9.99    C512,386.346,507.528,381.872,502.01,381.872z M283.843,242.014c-9.915,0-17.982-8.067-17.982-17.982    c0-9.915,8.067-17.982,17.982-17.982h135.094l35.963,35.963H283.843z M94.424,371.882c0,5.508-4.481,9.99-9.99,9.99    c-5.508,0-9.99-4.481-9.99-9.99v-9.99h19.98V371.882z M377.435,371.882c0,5.508-4.481,9.99-9.99,9.99    c-5.508,0-9.99-4.481-9.99-9.99v-9.99h19.98V371.882z"/><path d="M224.362,384.799c-1.858-1.858-4.435-2.927-7.063-2.927c-2.627,0-5.205,1.068-7.063,2.927    c-1.858,1.858-2.927,4.435-2.927,7.063s1.069,5.205,2.927,7.062c1.858,1.858,4.435,2.928,7.063,2.928    c2.627,0,5.205-1.069,7.063-2.928c1.858-1.857,2.927-4.435,2.927-7.062S226.22,386.657,224.362,384.799z"/><path d="M165.836,186.071H48.138c-5.517,0-9.99,4.473-9.99,9.99c0,5.516,4.472,9.99,9.99,9.99h117.698    c9.915,0,17.982,8.067,17.982,17.982s-8.067,17.982-17.983,17.982H9.994c-5.517,0-9.99,4.473-9.99,9.99s4.472,9.99,9.99,9.99    h155.842c20.932,0,37.961-17.03,37.961-37.961S186.767,186.071,165.836,186.071z"/><path d="M17.053,188.998c-1.858-1.859-4.425-2.927-7.063-2.927c-2.627,0-5.205,1.068-7.063,2.927    C1.069,190.856,0,193.433,0,196.06s1.069,5.205,2.927,7.062c1.858,1.858,4.436,2.928,7.063,2.928c2.637,0,5.205-1.069,7.063-2.928    c1.868-1.857,2.927-4.435,2.927-7.062S18.921,190.856,17.053,188.998z"/></g><g transform="matrix(0.0951504733961356 0.021485590788179305 -0.021485590788179305 0.0951504733961356 281.13109637665707 183.13021903881187)" id="L1_6"><path d="M442.881,378.052c-10.825-9.896-17.034-23.927-17.034-38.495v-99.558c0-5.522-4.477-10-10-10s-10,4.478-10,10v99.558    c0,20.17,8.58,39.581,23.54,53.257c5.377,4.915,8.46,11.908,8.46,19.188c0,14.335-11.663,25.998-25.998,25.998H99.846    c-14.335,0-25.998-11.663-25.998-25.998c0-7.279,3.083-14.272,8.46-19.188c14.96-13.676,23.54-33.087,23.54-53.257V223.999    c0-82.71,67.29-150,150-150c22.748,0,45.154,5.173,65.446,15.012c-7.053,11.33-11.143,24.688-11.143,38.988    c0,40.804,33.196,74,74,74s74-33.196,74-74s-33.196-74-74-74c-19.123,0-36.576,7.292-49.723,19.241    c-14.906-7.775-30.897-13.273-47.41-16.344c3.684-5.75,5.83-12.576,5.83-19.897c0-20.401-16.598-36.999-37-36.999    c-20.402,0-37,16.598-37,36.999c0,7.313,2.141,14.131,5.817,19.878C145.769,71.562,85.848,140.91,85.848,223.999v115.558    c0,14.568-6.208,28.599-17.034,38.495c-9.511,8.694-14.966,21.068-14.966,33.949c0,25.363,20.635,45.998,45.998,45.998h92.788    c4.816,30.556,31.326,54,63.214,54s58.398-23.444,63.214-54h92.788c25.363,0,45.998-20.635,45.998-45.998    C457.848,399.12,452.393,386.746,442.881,378.052z M384.15,73.999c29.776,0,54,24.225,54,54c0,29.775-24.224,54-54,54    s-54-24.225-54-54C330.15,98.224,354.374,73.999,384.15,73.999z M255.848,19.999c9.374,0,17,7.626,17,16.999    c0,9.374-7.626,17-17,17c-9.374,0-17-7.626-17-17C238.848,27.625,246.474,19.999,255.848,19.999z M255.848,491.999    c-20.821,0-38.298-14.542-42.84-34h85.68C294.146,477.457,276.669,491.999,255.848,491.999z"/><path d="M143.848,213.791c-5.523,0-10,4.478-10,10v0.208c0,5.522,4.477,10,10,10s10-4.478,10-10v-0.208    C153.848,218.269,149.371,213.791,143.848,213.791z"/><path d="M255.848,101.999c-49.071,0-93.17,29.188-112.346,74.362c-2.158,5.083,0.214,10.954,5.297,13.112    c1.275,0.541,2.6,0.798,3.903,0.798c3.892,0,7.593-2.287,9.21-6.095c16.034-37.771,52.906-62.177,93.936-62.177    c5.523,0,10-4.478,10-10C265.848,106.477,261.371,101.999,255.848,101.999z"/><path d="M387.675,95.593c-3.735-1.544-8.037-0.692-10.898,2.168l-11.5,11.5c-3.905,3.905-3.905,10.237,0,14.143    c2.334,2.333,5.537,3.275,8.571,2.816v18.112c0,5.522,4.477,10,10,10s10-4.478,10-10v-39.5    C393.848,100.787,391.411,97.141,387.675,95.593z"/></g><g transform="matrix(0.15461041139088455 0.027829874185223966 -0.027829874185223966 0.15461041139088455 177.5441824753509 1.2952868925162164)" id="L1_7"><path d="M255.999,152.46c-72.513,0-131.508,58.995-131.508,131.509s58.995,131.508,131.508,131.508    s131.508-58.994,131.508-131.508S328.514,152.46,255.999,152.46z M255.999,394.538c-60.968,0-110.57-49.601-110.57-110.57    c0-60.969,49.601-110.571,110.57-110.571c60.969,0,110.57,49.602,110.57,110.571C366.569,344.937,316.968,394.538,255.999,394.538    z"/><path d="M255.999,201.914c-45.245,0-82.055,36.809-82.055,82.055c0,45.245,36.81,82.053,82.055,82.053    s82.055-36.809,82.055-82.053S301.244,201.914,255.999,201.914z M255.999,346.186c-34.307,0-62.218-27.91-62.218-62.217    c0-34.307,27.911-62.218,62.218-62.218s62.218,27.911,62.218,62.218C318.218,318.276,290.307,346.186,255.999,346.186z"/><path d="M478.939,114.334H344.133l-13.768-37.5c-4.049-11.029-14.662-18.438-26.411-18.438h-95.908    c-11.749,0-22.362,7.41-26.411,18.438l-13.769,37.499H122.06V99.637c0-11.849-9.639-21.49-21.49-21.49h-31.72    c-11.849,0-21.49,9.641-21.49,21.49v14.697H33.061C14.831,114.334,0,129.165,0,147.395v273.148    c0,18.23,14.831,33.061,33.061,33.061h445.878c18.23,0,33.061-14.831,33.061-33.061V147.395    C512,129.165,497.169,114.334,478.939,114.334z M202.324,84.431c0.877-2.389,3.176-3.994,5.721-3.994h95.908    c2.545,0,4.844,1.605,5.721,3.994l10.979,29.903H191.345L202.324,84.431z M68.3,99.637c0-0.303,0.247-0.551,0.551-0.551h31.72    c0.304,0,0.551,0.248,0.551,0.551v14.697H68.3V99.637z M22.041,197.733h32.643v172.47H22.041V197.733z M489.958,420.543    c0.001,6.077-4.943,11.02-11.019,11.02H33.061c-6.077,0-11.02-4.944-11.02-11.02v-28.299h43.663c6.086,0,11.02-4.935,11.02-11.02    V186.713c0-6.085-4.934-11.02-11.02-11.02H22.041v-28.299c0-6.077,4.944-11.02,11.02-11.02h303.296    c0.029,0,0.056,0.003,0.084,0.003c0.024,0,0.05-0.003,0.074-0.003h142.424c6.077,0,11.02,4.944,11.02,11.02v28.299h-43.663    c-6.087,0-11.02,4.935-11.02,11.02v194.511c0,6.085,4.934,11.02,11.02,11.02h43.663V420.543z M489.959,370.203h-32.643v-172.47    h32.643V370.203z"/><path d="M255.999,243.425c-22.356,0-40.544,18.188-40.544,40.544c0,5.478,4.44,9.918,9.918,9.918s9.918-4.44,9.918-9.918    c0-11.418,9.289-20.707,20.707-20.707c5.478,0,9.918-4.44,9.918-9.918S261.478,243.425,255.999,243.425z"/></g><g transform="matrix(0.16593394123729077 -0.017284785898214538 0.017284785898214538 0.16593394123729077 275.3131912984926 78.17367248805724)" id="L1_8"><path d="M446.158,267.615c-5.622-3.103-12.756-2.421-19.574,1.871l-125.947,79.309c-3.505,2.208-4.557,6.838-2.35,10.343   c2.208,3.505,6.838,4.557,10.343,2.35l125.947-79.309c2.66-1.675,4.116-1.552,4.331-1.432c0.218,0.12,1.096,1.285,1.096,4.428   c0,8.449-6.271,19.809-13.42,24.311l-122.099,76.885c-6.492,4.088-12.427,5.212-16.284,3.084c-3.856-2.129-6.067-7.75-6.067-15.423   c0-19.438,13.896-44.61,30.345-54.967l139.023-87.542c2.181-1.373,3.503-3.77,3.503-6.347s-1.323-4.974-3.503-6.347L184.368,50.615   c-2.442-1.538-5.551-1.538-7.993,0L35.66,139.223C15.664,151.815,0,180.188,0,203.818v4c0,23.63,15.664,52.004,35.66,64.595   l209.292,131.791c3.505,2.207,8.136,1.154,10.343-2.35c2.207-3.505,1.155-8.136-2.35-10.343L43.653,259.72   C28.121,249.941,15,226.172,15,207.818v-4c0-18.354,13.121-42.122,28.653-51.902l136.718-86.091l253.059,159.35l-128.944,81.196   c-20.945,13.189-37.352,42.909-37.352,67.661c0,13.495,4.907,23.636,13.818,28.555c3.579,1.976,7.526,2.956,11.709,2.956   c6.231,0,12.985-2.176,19.817-6.479l122.099-76.885c11.455-7.213,20.427-23.467,20.427-37.004   C455.004,277.119,451.78,270.719,446.158,267.615z"/><path d="M353.664,232.676c2.492,0,4.928-1.241,6.354-3.504c2.207-3.505,1.155-8.136-2.35-10.343l-173.3-109.126   c-3.506-2.207-8.136-1.154-10.343,2.35c-2.207,3.505-1.155,8.136,2.35,10.343l173.3,109.126   C350.916,232.303,352.298,232.676,353.664,232.676z"/><path d="M323.68,252.58c2.497,0,4.938-1.246,6.361-3.517c2.201-3.509,1.14-8.138-2.37-10.338L254.46,192.82   c-3.511-2.202-8.139-1.139-10.338,2.37c-2.201,3.51-1.14,8.138,2.37,10.338l73.211,45.905   C320.941,252.21,322.318,252.58,323.68,252.58z"/><path d="M223.903,212.559c-3.513-2.194-8.14-1.124-10.334,2.39c-2.194,3.514-1.124,8.14,2.39,10.334l73.773,46.062   c1.236,0.771,2.608,1.139,3.965,1.139c2.501,0,4.947-1.251,6.369-3.529c2.194-3.514,1.124-8.14-2.39-10.334L223.903,212.559z"/><path d="M145.209,129.33l-62.33,39.254c-2.187,1.377-3.511,3.783-3.503,6.368s1.345,4.983,3.54,6.348l74.335,46.219   c1.213,0.754,2.586,1.131,3.96,1.131c1.417,0,2.833-0.401,4.071-1.201l16.556-10.7c3.479-2.249,4.476-6.891,2.228-10.37   c-2.248-3.479-6.891-4.475-10.37-2.228l-12.562,8.119l-60.119-37.38l48.2-30.355l59.244,37.147l-6.907,4.464   c-3.479,2.249-4.476,6.891-2.228,10.37c2.249,3.479,6.894,4.476,10.37,2.228l16.8-10.859c2.153-1.392,3.446-3.787,3.429-6.351   c-0.018-2.563-1.344-4.94-3.516-6.302l-73.218-45.909C150.749,127.792,147.647,127.795,145.209,129.33z"/><path d="M270.089,288.846c2.187-3.518,1.109-8.142-2.409-10.329l-74.337-46.221c-3.518-2.188-8.143-1.109-10.329,2.409   c-2.187,3.518-1.109,8.142,2.409,10.329l74.337,46.221c1.232,0.767,2.601,1.132,3.953,1.132   C266.219,292.387,268.669,291.131,270.089,288.846z"/><path d="M53.527,192.864c-2.187,3.518-1.109,8.142,2.409,10.329l183.478,114.081c1.232,0.767,2.601,1.132,3.953,1.132   c2.506,0,4.956-1.256,6.376-3.541c2.187-3.518,1.109-8.142-2.409-10.329L63.856,190.455   C60.338,188.266,55.714,189.346,53.527,192.864z"/></g><g transform="matrix(0.16120134586770435 0.05890049083193329 -0.05890049083193329 0.16120134586770435 295.81095124357705 266.653953367982)" id="L1_9"><path d="M486.4,59.733H25.6c-14.138,0-25.6,11.461-25.6,25.6v341.333c0,14.138,11.461,25.6,25.6,25.6h460.8     c14.138,0,25.6-11.461,25.6-25.6V85.333C512,71.195,500.539,59.733,486.4,59.733z M494.933,426.667     c0,4.713-3.82,8.533-8.533,8.533H25.6c-4.713,0-8.533-3.82-8.533-8.533V85.333c0-4.713,3.82-8.533,8.533-8.533h460.8     c4.713,0,8.533,3.82,8.533,8.533V426.667z"/><path d="M470.076,93.898c-2.255-0.197-4.496,0.51-6.229,1.966L266.982,261.239c-6.349,5.337-15.616,5.337-21.965,0L48.154,95.863     c-2.335-1.96-5.539-2.526-8.404-1.484c-2.865,1.042-4.957,3.534-5.487,6.537s0.582,6.06,2.917,8.02l196.864,165.367     c12.688,10.683,31.224,10.683,43.913,0L474.82,108.937c1.734-1.455,2.818-3.539,3.015-5.794c0.197-2.255-0.51-4.496-1.966-6.229     C474.415,95.179,472.331,94.095,470.076,93.898z"/><path d="M164.124,273.13c-3.021-0.674-6.169,0.34-8.229,2.65l-119.467,128c-2.162,2.214-2.956,5.426-2.074,8.392     c0.882,2.967,3.301,5.223,6.321,5.897c3.021,0.674,6.169-0.34,8.229-2.65l119.467-128c2.162-2.214,2.956-5.426,2.074-8.392     C169.563,276.061,167.145,273.804,164.124,273.13z"/><path d="M356.105,275.78c-2.059-2.31-5.208-3.324-8.229-2.65c-3.021,0.674-5.439,2.931-6.321,5.897     c-0.882,2.967-0.088,6.178,2.074,8.392l119.467,128c3.24,3.318,8.536,3.442,11.927,0.278c3.391-3.164,3.635-8.456,0.549-11.918     L356.105,275.78z"/></g></defs><g fi:class="KUsePattern"><pattern id="pattern_L1_0" width="350" height="350" patternUnits="userSpaceOnUse"><use xlink:href="#L1_0" x="-350" y="-350"/><use xlink:href="#L1_0" x="0" y="-350"/><use xlink:href="#L1_0" x="350" y="-350"/><use xlink:href="#L1_0" x="-350" y="0"/><use xlink:href="#L1_0" x="0" y="0"/><use xlink:href="#L1_0" x="350" y="0"/><use xlink:href="#L1_0" x="-350" y="350"/><use xlink:href="#L1_0" x="0" y="350"/><use xlink:href="#L1_0" x="350" y="350"/></pattern><rect x="0" y="0" width="100%" height="100%" fill="url(#pattern_L1_0)"/></g><g fi:class="KUsePattern"><pattern id="pattern_L1_4" width="350" height="350" patternUnits="userSpaceOnUse"><use xlink:href="#L1_4" x="-350" y="-350"/><use xlink:href="#L1_4" x="0" y="-350"/><use xlink:href="#L1_4" x="350" y="-350"/><use xlink:href="#L1_4" x="-350" y="0"/><use xlink:href="#L1_4" x="0" y="0"/><use xlink:href="#L1_4" x="350" y="0"/><use xlink:href="#L1_4" x="-350" y="350"/><use xlink:href="#L1_4" x="0" y="350"/><use xlink:href="#L1_4" x="350" y="350"/></pattern><rect x="0" y="0" width="100%" height="100%" fill="url(#pattern_L1_4)"/></g><g fi:class="KUsePattern"><pattern id="pattern_L1_2" width="350" height="350" patternUnits="userSpaceOnUse"><use xlink:href="#L1_2" x="-350" y="-350"/><use xlink:href="#L1_2" x="0" y="-350"/><use xlink:href="#L1_2" x="350" y="-350"/><use xlink:href="#L1_2" x="-350" y="0"/><use xlink:href="#L1_2" x="0" y="0"/><use xlink:href="#L1_2" x="350" y="0"/><use xlink:href="#L1_2" x="-350" y="350"/><use xlink:href="#L1_2" x="0" y="350"/><use xlink:href="#L1_2" x="350" y="350"/></pattern><rect x="0" y="0" width="100%" height="100%" fill="url(#pattern_L1_2)"/></g><g fi:class="KUsePattern"><pattern id="pattern_L1_6" width="350" height="350" patternUnits="userSpaceOnUse"><use xlink:href="#L1_6" x="-350" y="-350"/><use xlink:href="#L1_6" x="0" y="-350"/><use xlink:href="#L1_6" x="350" y="-350"/><use xlink:href="#L1_6" x="-350" y="0"/><use xlink:href="#L1_6" x="0" y="0"/><use xlink:href="#L1_6" x="350" y="0"/><use xlink:href="#L1_6" x="-350" y="350"/><use xlink:href="#L1_6" x="0" y="350"/><use xlink:href="#L1_6" x="350" y="350"/></pattern><rect x="0" y="0" width="100%" height="100%" fill="url(#pattern_L1_6)"/></g><g fi:class="KUsePattern"><pattern id="pattern_L1_7" width="350" height="350" patternUnits="userSpaceOnUse"><use xlink:href="#L1_7" x="-350" y="-350"/><use xlink:href="#L1_7" x="0" y="-350"/><use xlink:href="#L1_7" x="350" y="-350"/><use xlink:href="#L1_7" x="-350" y="0"/><use xlink:href="#L1_7" x="0" y="0"/><use xlink:href="#L1_7" x="350" y="0"/><use xlink:href="#L1_7" x="-350" y="350"/><use xlink:href="#L1_7" x="0" y="350"/><use xlink:href="#L1_7" x="350" y="350"/></pattern><rect x="0" y="0" width="100%" height="100%" fill="url(#pattern_L1_7)"/></g><g fi:class="KUsePattern"><pattern id="pattern_L1_8" width="350" height="350" patternUnits="userSpaceOnUse"><use xlink:href="#L1_8" x="-350" y="-350"/><use xlink:href="#L1_8" x="0" y="-350"/><use xlink:href="#L1_8" x="350" y="-350"/><use xlink:href="#L1_8" x="-350" y="0"/><use xlink:href="#L1_8" x="0" y="0"/><use xlink:href="#L1_8" x="350" y="0"/><use xlink:href="#L1_8" x="-350" y="350"/><use xlink:href="#L1_8" x="0" y="350"/><use xlink:href="#L1_8" x="350" y="350"/></pattern><rect x="0" y="0" width="100%" height="100%" fill="url(#pattern_L1_8)"/></g><g fi:class="KUsePattern"><pattern id="pattern_L1_9" width="350" height="350" patternUnits="userSpaceOnUse"><use xlink:href="#L1_9" x="-350" y="-350"/><use xlink:href="#L1_9" x="0" y="-350"/><use xlink:href="#L1_9" x="350" y="-350"/><use xlink:href="#L1_9" x="-350" y="0"/><use xlink:href="#L1_9" x="0" y="0"/><use xlink:href="#L1_9" x="350" y="0"/><use xlink:href="#L1_9" x="-350" y="350"/><use xlink:href="#L1_9" x="0" y="350"/><use xlink:href="#L1_9" x="350" y="350"/></pattern><rect x="0" y="0" width="100%" height="100%" fill="url(#pattern_L1_9)"/></g></svg>